<svg xmlns="http://www.w3.org/2000/svg" xmlns:svg="http://www.w3.org/2000/svg" id="svg3202" width="744.094" height="1052.362" version="1.1"><metadata id="metadata3207"/><g id="layer1"><path style="fill:#000;fill-opacity:1;stroke:#6b4e2d;stroke-width:.1171875" id="path6" d="m 282.11421,385.40125 c -21.73096,0.44953 -42.59375,14.5625 -51.03125,34.71875 -6.125,13.75 -6,30.125 0.375,43.875 7.625,17.375 24.5,29.625 42.875,33.375 3.75,5.375 8,10.5 11.125,16.25 3.625,-5.375 7.625,-10.5 11.125,-16 11.625,-2.875 23,-8.125 31.74999,-16.625 9.25,-9.625 15.375,-22.25 16.375,-35.625 1.125,-14.875 -4.625,-30 -14.625,-41 -11.12499,-11.875 -27.12499,-19.625 -43.62499,-18.875 -1.45313,-0.0937 -2.89502,-0.12371 -4.34375,-0.0937 z m 3.84375,4.21875 c 7.15454,-0.001 14.3125,1.3125 20.875,4.125 13.875,5.5 25.24999,16.875 30.37499,30.875 4.625,13.5 3.625,29.125 -3.625,41.625 -7.74999,14 -22.49999,24.375 -38.49999,26.375 -3.5,4 -6.25,8.5 -9.375,12.75 -2.875,-3.625 -5.375,-7.625 -8.125,-11.25 -1,-1.5 -2.875,-1.5 -4.375,-1.875 -17.375,-3.625 -32.875,-16.375 -38.875,-33.25 -3.5,-9.5 -4.5,-20 -1.625,-29.875 4.75,-19.125 21.375,-34 40.5,-38.125 4.17187,-0.89062 8.45727,-1.37426 12.75,-1.375 z"/><path id="path10" d="m 258.08296,419.495 c 2.5,-0.125 5,-0.125 7.375,-0.125 0.125,0.75 0.25,2.375 0.375,3.125 6.5,-4.625 15.375,-2.5 20.75,3 4.75,-5.375 13.25,-7.375 19.625,-3.75 4.875,2.625 8.5,7.875 8.5,13.5 0,8.625 0.125,17.25 0,25.875 -0.625,3.625 -6.125,3.75 -7.25,0.375 -0.5,-8.625 0.125,-17.25 -0.25,-25.875 -0.125,-3.875 -3.25,-7.375 -7,-8 -4.75,-0.875 -9.75,2.875 -10,7.625 -0.625,8.75 0.375,17.625 -0.375,26.375 -1,3.75 -7.25,2.75 -7.125,-1.125 -0.375,-8.375 0.125,-16.75 -0.125,-25.125 -0.125,-5.25 -6.125,-9.25 -11,-7.5 -3.75,1.125 -6.125,4.875 -6,8.75 0,8.875 0,17.875 0.125,26.75 -2.625,0 -5.125,0.125 -7.625,0.125 0.125,-14.75 0,-29.375 0,-44 z" style="fill:#000;stroke:#000;stroke-width:.1171875;stroke-opacity:1"/><flowRoot id="flowRoot3219" transform="translate(-16,0)" xml:space="preserve" style="font-size:64px;font-style:normal;font-weight:400;line-height:125%;letter-spacing:0;word-spacing:0;fill:#000;fill-opacity:1;stroke:none;font-family:Cantarell;-inkscape-font-specification:Cantarell;font-stretch:normal;font-variant:normal;text-anchor:start;text-align:start;writing-mode:lr"><flowRegion id="flowRegion3221"><rect id="rect3223" width="268.571" height="85" x="375" y="400.934" style="-inkscape-font-specification:Cantarell;font-family:Cantarell;font-weight:400;font-style:normal;font-stretch:normal;font-variant:normal;font-size:64px;text-anchor:start;text-align:start;writing-mode:lr;line-height:125%"/></flowRegion><flowPara id="flowPara3225" style="font-size:64px;font-style:normal;font-variant:normal;font-weight:400;font-stretch:normal;text-align:start;line-height:125%;writing-mode:lr;text-anchor:start;font-family:Cantarell;-inkscape-font-specification:Cantarell">Create</flowPara></flowRoot></g></svg>